<?xml version="1.0" standalone="no"?><!DOCTYPE svg PUBLIC "-//W3C//DTD SVG 1.1//EN" "http://www.w3.org/Graphics/SVG/1.1/DTD/svg11.dtd"><svg t="1521989174820" class="icon" style="" viewBox="0 0 1024 1024" version="1.1" xmlns="http://www.w3.org/2000/svg" p-id="1590" xmlns:xlink="http://www.w3.org/1999/xlink" width="64" height="64"><defs><style type="text/css"></style></defs><path d="M459.6736 11.008c-90.51136 10.15808-175.33952 43.71456-249.53856 98.304-27.88352 20.79744-78.92992 71.84384-99.72736 99.96288-53.17632 72.06912-83.89632 146.98496-96.65536 236.30848-4.73088 33.32096-4.73088 99.72736 0.23552 134.69696 15.83104 112.95744 68.05504 214.80448 150.528 294.44096 193.06496 185.97888 499.79392 186.92096 693.80096 2.12992 79.63648-75.6224 129.96608-170.14784 150.99904-282.38848 5.90848-32.13312 5.90848-133.2736 0-165.41696-6.61504-34.73408-15.59552-67.34848-26.70592-96.4096-64.27648-167.07584-209.60256-286.4128-386.12992-317.1328-34.00704-5.91872-104.43776-8.27392-136.8064-4.49536zM795.22816 261.0176l6.85056 6.85056v487.75168l-6.85056 6.85056-6.85056 6.85056H236.83072l-6.85056-6.85056-6.85056-6.85056V267.8784l6.85056-6.85056 6.85056-6.85056H788.3776l6.85056 6.84032z" p-id="1591"></path><path d="M277.95456 466.13504l0.70656 155.4944 21.26848 0.47104 21.26848 0.70656 45.84448-72.07936 46.08-72.06912 15.59552 24.34048c8.50944 13.23008 29.30688 45.60896 46.08 71.8336l30.72 47.9744h46.56128l-5.43744-8.98048c-3.072-4.73088-14.41792-22.44608-25.04704-39.22944-10.86464-16.78336-19.6096-31.42656-19.6096-32.6144 0-1.64864 26.94144-45.13792 30.72-49.85856 0.94208-0.94208 20.79744 27.88352 43.95008 64.27648l42.30144 66.4064H745.3696V310.8864H277.47328l0.48128 155.24864z m397.93664-96.4096c18.66752 8.50944 31.42656 31.8976 28.35456 51.51744-2.36544 13.4656-10.86464 26.70592-22.21056 34.9696-8.98048 6.144-12.288 7.08608-26.23488 7.08608-13.70112 0-17.72544-0.94208-27.41248-7.08608-34.26304-21.26848-29.5424-73.25696 8.27392-88.38144 9.46176-3.77856 28.83584-2.83648 39.22944 1.8944z" p-id="1592"></path></svg>